<svg width="123" height="123" viewBox="0 0 123 123" fill="none" xmlns="http://www.w3.org/2000/svg">
<path d="M62.5677 81.0304C62.5677 81.0304 94.2112 66.3468 83.2996 45.8736C72.3881 25.4004 60.5532 6.77319 38.9819 26.3234C38.9819 26.3234 45.8646 16.4224 50.1453 9.3743C54.342 2.32615 62.6516 -11.0989 79.5225 17.5132C96.4774 46.0414 97.3168 46.0414 96.8971 55.2711C96.4774 64.5009 79.2707 79.4362 62.5677 80.9465" fill="#706F6F"/>
<path d="M60.8888 41.007C60.8888 41.007 29.0774 55.355 39.7371 75.9121C50.3969 96.4692 61.9799 115.348 83.803 96.0497C83.803 96.0497 76.7525 105.867 72.4718 112.831C68.1072 119.795 59.7137 133.136 43.1785 104.356C26.6433 75.5765 25.72 75.5765 26.3075 66.3468C26.8951 57.1171 44.1857 42.4334 60.9727 41.0909" fill="#706F6F"/>
<path d="M81.9564 57.8722C81.9564 57.8722 65.7569 27.3303 45.5286 38.9094C25.3003 50.4885 6.83456 62.9066 27.5665 83.3798C27.5665 83.3798 17.2425 77.0029 9.94015 73.0593C2.63781 69.1996 -11.2954 61.5641 16.9907 43.7759C45.1929 25.9039 45.1929 25.0648 54.5936 25.0648C63.9943 25.0648 79.7741 41.4266 82.0403 57.7883" fill="#35A9E1"/>
<path d="M40.7441 61.3124C40.7441 61.3124 55.0131 92.7773 75.9968 82.4568C96.8967 72.0524 116.118 60.809 96.7288 39.1611C96.7288 39.1611 106.633 46.1253 113.684 50.4885C120.734 54.7677 134.164 63.1583 104.87 79.3523C75.5772 95.4623 75.5772 96.3853 66.2604 95.7141C56.9436 95.1267 42.0871 77.842 40.912 61.3963" fill="#35A9E1"/>
</svg>
